<?xml version="1.0" encoding="utf-8"?><svg xmlns="http://www.w3.org/2000/svg" xmlns:xlink="http://www.w3.org/1999/xlink"><symbol fill="none" viewBox="0 0 10 20" id="arrow" xmlns="http://www.w3.org/2000/svg"><path d="m9 19-8-9 8-9"/></symbol><symbol fill="none" viewBox="0 0 29 26" id="cart" xmlns="http://www.w3.org/2000/svg"><path d="m9.07 18.034.071-.144.935-1.903.027-.056h.062l15.525-.028c.477 0 .886-.34.97-.811L9.07 18.034zm0 0h18.771a1.006 1.006 0 0 1 1.006 1c0 .555-.452 1.004-1.003 1.004h-3.74l.119.16a3.109 3.109 0 0 1-2.482 4.975 3.109 3.109 0 0 1-3.107-3.107c0-.674.219-1.33.624-1.868l.12-.16h-5.434l.12.16a3.109 3.109 0 0 1-2.482 4.975 3.109 3.109 0 0 1-3.107-3.107 3.1 3.1 0 0 1 .624-1.868l.12-.16H7.056a1 1 0 0 1-.895-.552.992.992 0 0 1 .085-1.045l.005-.008 2.337-3.815.021-.034-.008-.039-1.816-8.79-.737-3.507-.017-.08H2.016a1.003 1.003 0 0 1 0-2.006h4.828c.471 0 .887.336.983.796l.169.794.017.079h.08l19.75.066a.994.994 0 0 1 .755.355.986.986 0 0 1 .213.805l-2.15 12.035-17.59 2.942zM8.554 3.806H8.43l.025.12 2.097 9.954.017.08h.081l14.135-.026h.083l.015-.082 1.762-9.869.021-.117h-.119l-17.994-.06zm1.94 18.26a1.09 1.09 0 0 0 1.857.769 1.088 1.088 0 1 0-1.856-.77zm10.16 0a1.09 1.09 0 0 0 1.857.769 1.088 1.088 0 1 0-1.857-.77z" fill="#0069B4"/></symbol><symbol fill="none" viewBox="0 0 16 12" id="check-mark" xmlns="http://www.w3.org/2000/svg"><path d="M7.243 11.42a1.858 1.858 0 0 1-2.628 0L.545 7.35a1.858 1.858 0 0 1 2.627-2.628l2.425 2.425a.47.47 0 0 0 .664 0L12.828.58a1.858 1.858 0 0 1 2.628 2.627L7.243 11.42z" fill="#0069B4"/></symbol><symbol fill="none" viewBox="0 0 30 30" id="tools" xmlns="http://www.w3.org/2000/svg"><path d="M23.693 28.61a5.157 5.157 0 0 1-5.15-5.151 5.177 5.177 0 0 1 3.185-4.763 5.157 5.157 0 0 1 7.118 4.763 5.157 5.157 0 0 1-5.153 5.151zm-1.602-8.818a4.016 4.016 0 0 0-2.074 2.106 3.954 3.954 0 0 0-.321 1.56 4.002 4.002 0 0 0 3.997 3.998 4.002 4.002 0 0 0 3.998-3.997 4.002 4.002 0 0 0-5.6-3.667zm-15.55-8.336c-.29 0-.584-.024-.877-.072-2.223-.366-3.965-2.192-4.237-4.44a5.188 5.188 0 0 1 .129-1.946.577.577 0 0 1 .966-.262l2.15 2.15h1.826l.788-.788V4.27L5.24 2.224a.577.577 0 0 1 .294-.973 5.157 5.157 0 0 1 5.752 7.06 5.212 5.212 0 0 1-2.78 2.758 5.112 5.112 0 0 1-1.965.387zm1.788-.937h.006-.006zM2.543 6.39a3.981 3.981 0 0 0 3.309 3.856 4.03 4.03 0 0 0 2.29-.274 4.049 4.049 0 0 0 2.08-2.107 4.003 4.003 0 0 0-3.244-5.532l1.293 1.292a.577.577 0 0 1 .17.408v2.305c0 .152-.062.3-.17.407L7.145 7.871a.577.577 0 0 1-.408.169H4.433a.574.574 0 0 1-.408-.17L2.543 6.39z" fill="#0069B4"/><path d="M21.902 19.82a.574.574 0 0 1-.408-.17l-3.41-3.415a.577.577 0 0 1 .817-.816l3.41 3.416a.577.577 0 0 1-.409.984zm-7.731-7.731a.575.575 0 0 1-.408-.17L10.348 8.5a.577.577 0 1 1 .816-.816l3.415 3.421a.577.577 0 0 1-.408.985zm-2.423 2.428a.575.575 0 0 1-.407-.169l-3.422-3.42a.577.577 0 1 1 .816-.816l3.421 3.42a.577.577 0 0 1-.408.985zm7.737 7.737a.575.575 0 0 1-.408-.169l-3.421-3.421a.577.577 0 1 1 .816-.816l3.42 3.421a.577.577 0 0 1-.407.985zm5.369 3.791h-2.321a.577.577 0 0 1-.5-.288l-1.16-2.01a.578.578 0 0 1 0-.577l1.16-2.01a.577.577 0 0 1 .5-.29h2.32c.207 0 .397.11.5.29l1.161 2.01a.578.578 0 0 1 0 .577l-1.16 2.01a.577.577 0 0 1-.5.288zm-1.988-1.153h1.655l.827-1.434-.827-1.433h-1.655l-.828 1.433.828 1.434z" fill="#0069B4"/><path d="M14.362 20.223c-.34 0-.68-.129-.939-.388l-3.258-3.252a1.344 1.344 0 0 1-.005-1.875L22.63 2.236a3.573 3.573 0 0 1 5.04 0l.085.081a3.57 3.57 0 0 1 .012 5.05L15.3 19.836a1.323 1.323 0 0 1-.938.388zM25.148 2.351c-.617 0-1.233.235-1.702.702L10.978 15.521a.18.18 0 0 0 .005.249l3.256 3.25a.172.172 0 0 0 .245 0L26.952 6.551c.454-.455.705-1.06.705-1.704a2.39 2.39 0 0 0-.705-1.703l-.086-.08a2.422 2.422 0 0 0-1.718-.714zM3.245 28.846a.576.576 0 0 1-.408-.169l-1.512-1.512a.577.577 0 0 1-.084-.71l1.945-3.172a1.354 1.354 0 0 1 1.978-.364c.077.06.119.096.157.135l1.454 1.454c.03.03.06.062.087.096l.177.218a1.352 1.352 0 0 1-.34 2.006l-3.153 1.933a.575.575 0 0 1-.301.085zm-.783-2.175.869.869 2.765-1.695a.195.195 0 0 0 .091-.136.196.196 0 0 0-.042-.158l-.186-.227-1.454-1.454-.046-.038a.2.2 0 0 0-.157-.037.195.195 0 0 0-.133.091l-1.707 2.785z" fill="#0069B4"/><path d="M4.647 23.772a.577.577 0 0 1-.408-.985l6.476-6.475a.577.577 0 1 1 .816.816l-6.476 6.475a.575.575 0 0 1-.408.17zm2.158 2.158a.577.577 0 0 1-.408-.985l6.476-6.474a.577.577 0 1 1 .816.816l-6.476 6.475a.575.575 0 0 1-.408.169zm7.555-9.712a.577.577 0 0 1-.408-.985L24.745 4.44a.577.577 0 1 1 .816.816L14.768 16.049a.575.575 0 0 1-.408.169z" fill="#0069B4"/></symbol></svg>